<?xml version="1.0" encoding="UTF-8" standalone="no"?>
<svg
   width="1078.557pt"
   height="354.04822pt"
   viewBox="0 0 1078.557 354.04822"
   version="1.1"
   id="svg6"
   xmlns="http://www.w3.org/2000/svg">
  <defs
     id="defs6" />
  <path
     fill-rule="evenodd"
     fill="#231f20"
     fill-opacity="1"
     d="m 323.35268,10.025235 c 0.84766,15.83984 -21.66406,8.31641 -27.83984,17.13281 -7.42578,55.21875 -4.28125,150.441405 -4.28125,224.847655 0,24.42969 -4.96485,59.28906 2.14062,72.80469 5.99219,11.39843 24.97266,7.35937 29.98047,17.13281 -3.48437,17.80859 -36.85156,10.70703 -57.82031,10.70703 -22.89063,0 -50.00781,4.57812 -59.95703,-6.42578 -2.02344,-17.72656 25.03906,-6.36328 27.83594,-19.27344 4.98828,-92.80078 0.72265,-194.85937 2.14453,-291.226555 -39.73828,-8.36719 -102.35157,-4.34375 -145.617182,-2.14063 -3.55859,92.835935 -3.55859,200.531245 0,293.367185 4.97266,13.80859 29.058582,0.89063 27.839832,17.13281 -1.08203,14.39844 -32.414052,8.56641 -57.816392,8.56641 -26.44141,0 -54.8945302,3.68359 -59.96094017,-6.42578 -0.19531,-16.61328 24.57812017,-8.25391 29.98047017,-19.27344 3.80859,-59.28125 2.14062,-147.08203 2.14062,-218.42187 0,-26.050785 5.46875,-55.917965 0,-72.804685 -5.15625,-15.91406 -27.7031202,-11.26953 -29.9804702,-25.69922 -0.34765,-2.4882797 0.47266,-3.8085897 2.14063,-4.2812497 59.6054702,-7.61328 172.1210822,-4.28125 248.4023322,-4.28125 24.76172,0 53.72657,-6.69531 70.66797,8.5624997"
     id="path2"
     style="fill:#ffffff;fill-opacity:1" />
  <path
     fill-rule="evenodd"
     fill="#231f20"
     fill-opacity="1"
     d="m 693.81362,3.6033553 c 8.39453,17.3124997 22.73047,40.0664097 19.26953,62.0976597 -21.6875,5.80859 -19.07031,-21.50781 -36.40234,-29.97656 -24.32422,-11.88672 -54.21875,1.5 -89.9375,-2.14063 -3.57813,92.820315 -3.54688,200.542965 0,293.371095 3.83984,11.14843 26.80078,3.17578 27.83984,17.1289 -7.00391,14.61719 -35.04687,8.56641 -55.67969,8.56641 -22.28125,0 -47.17578,3.32031 -59.95703,-4.28516 -5.74219,-14.1289 21.03906,-12.82812 27.83985,-21.41015 5.82031,-94.91407 -0.3125,-194.85157 0,-291.230465 -28.73829,-4.48828 -69.08204,-11.34766 -92.08204,2.14062 -15.89062,9.31641 -13.8125,31.8711 -32.12109,27.83594 -12.67969,-3.55859 11.07031,-53.34766 17.13281,-59.9570297 82.16407,-8.53125 188.36719,-4.29688 274.09766,-2.14063"
     id="path4"
     style="fill:#ffffff;fill-opacity:1" />
  <path
     fill-rule="evenodd"
     fill="#231f20"
     fill-opacity="1"
     d="m 1077.1222,1.4627353 c 6.4922,21.7968697 -10.5313,35.4648397 -21.4141,49.2499997 -69.57811,88.136715 -141.27731,177.652335 -209.85541,269.816405 61.8515,2.08203 164.58981,20.1289 197.00781,-17.13282 10.1132,-11.625 8.1914,-33.27734 29.9804,-36.40234 9.7657,26.33594 -6.9687,62.87891 -14.9922,85.65625 -92.83981,-2.80859 -196.94131,5.64453 -282.66399,-4.28516 9.82032,-32.53515 36.10157,-56.16797 55.67578,-81.37109 58.7656,-75.65625 117.2461,-152.53516 175.59761,-231.269525 -72.05471,1.8164 -168.73823,-20.55078 -199.15229,25.69531 -5.79688,8.82031 -7.11719,33.9375 -27.83594,25.69531 -3.69531,-20.2539 10.79297,-59.04687 17.13281,-83.5117197 92.39451,-4.44920998 184.10931,-0.52343 280.51952,-2.14062"
     id="path6"
     style="fill:#ffffff;fill-opacity:1" />
</svg>
